<svg width="17" height="17" viewBox="0 0 17 17" fill="none" xmlns="http://www.w3.org/2000/svg">
<path d="M7.03418 4.73096C7.03418 2.42383 5.75244 0.95752 3.75293 0.95752C1.76367 0.95752 0.481934 2.42383 0.481934 4.73096C0.481934 7.04834 1.76367 8.51465 3.75293 8.51465C5.75244 8.51465 7.03418 7.04834 7.03418 4.73096ZM3.75293 6.90479C3.00439 6.90479 2.54297 6.08447 2.54297 4.73096C2.54297 3.36719 3.00439 2.54688 3.75293 2.54688C4.51172 2.54688 4.97314 3.36719 4.97314 4.73096C4.97314 6.08447 4.51172 6.90479 3.75293 6.90479ZM3.95801 16L9.17725 8.84277L14.7554 1.20361H12.5405L7.45459 8.15576L1.72266 16H3.95801ZM16.0063 12.4111C16.0063 10.104 14.7246 8.62744 12.7251 8.62744C10.7358 8.62744 9.4541 10.104 9.4541 12.4111C9.4541 14.7183 10.7358 16.1846 12.7251 16.1846C14.7246 16.1846 16.0063 14.7183 16.0063 12.4111ZM12.7251 14.585C11.9766 14.585 11.5151 13.7544 11.5151 12.4009C11.5151 11.0474 11.9766 10.2168 12.7251 10.2168C13.4839 10.2168 13.9453 11.0474 13.9453 12.4009C13.9453 13.7544 13.4839 14.585 12.7251 14.585Z" fill="#2F3035"/>
</svg>
